<svg fill="none" height="48" viewBox="0 0 172 48" width="172" xmlns="http://www.w3.org/2000/svg">
    <rect fill="white" height="48" width="172"/>
    <path d="M38.143 23.7766C38.143 27.1835 38.143 36.142 38.143 36.142C38.143 36.142 29.1999 36.142 25.7775 36.142C18.9483 36.142 13.4121 30.6058 13.4121 23.7766C13.4121 16.9473 18.9483 11.4111 25.7775 11.4111C32.6068 11.4111 38.143 16.9473 38.143 23.7766Z"
          fill="#FF835C"/>
    <rect fill="white" height="4.26394" rx="2.13197" width="5.11673" x="17.6758" y="18.2334"/>
    <rect fill="white" height="4.26394" rx="2.13197" width="9.38068" x="19.3809" y="25.0558"/>
    <rect fill="white" height="4.26394" rx="2.13197" width="9.38068" x="24.498" y="18.2334"/>
    <rect fill="white" height="4.26394" rx="2.13197" width="4.26394" x="30.4688" y="25.0558"/>
    <path d="M49.4562 16.3279C49.095 16.3279 48.7725 16.4053 48.4888 16.5601C48.205 16.7097 47.9625 16.929 47.7613 17.2179C47.5601 17.5068 47.4053 17.8603 47.2969 18.2782C47.1937 18.6909 47.1421 19.1605 47.1421 19.6867C47.1421 20.3987 47.2324 20.9972 47.413 21.4822C47.5936 21.9672 47.8671 22.3336 48.2334 22.5812C48.6049 22.8289 49.0692 22.9527 49.6264 22.9527C50.1321 22.9527 50.6171 22.883 51.0814 22.7437C51.5509 22.6044 52.023 22.4367 52.4977 22.2407V24.8256C51.9972 25.0475 51.4839 25.2074 50.9576 25.3054C50.4365 25.4035 49.8818 25.4525 49.2937 25.4525C48.0657 25.4525 47.0596 25.21 46.2753 24.725C45.4963 24.2348 44.921 23.5564 44.5495 22.6896C44.1832 21.8228 44 20.8167 44 19.6712C44 18.8148 44.1187 18.0305 44.356 17.3185C44.5985 16.6065 44.9519 15.9899 45.4163 15.4688C45.8806 14.9426 46.4533 14.5375 47.1344 14.2538C47.8206 13.9648 48.6049 13.8204 49.4871 13.8204C50.0341 13.8204 50.6093 13.8849 51.213 14.0138C51.8218 14.1377 52.4152 14.3389 52.993 14.6175L52.0566 17.0244C51.6438 16.8284 51.2259 16.6633 50.8028 16.5291C50.3797 16.395 49.9309 16.3279 49.4562 16.3279Z"
          fill="#3F3F3F"/>
    <path d="M58.813 16.3743C59.9223 16.3743 60.7891 16.6504 61.4134 17.2024C62.0377 17.7493 62.3498 18.531 62.3498 19.5474V25.2977H60.2525L59.672 24.1368H59.6101C59.3625 24.4464 59.1071 24.6992 58.8439 24.8953C58.5859 25.0862 58.2893 25.2255 57.9539 25.3132C57.6185 25.406 57.2084 25.4525 56.7234 25.4525C56.2177 25.4525 55.7637 25.3493 55.3612 25.1429C54.9588 24.9365 54.6415 24.6244 54.4093 24.2065C54.1771 23.7885 54.0611 23.2597 54.0611 22.6199C54.0611 21.6809 54.3861 20.9843 55.0362 20.5303C55.6863 20.0763 56.6279 19.8209 57.861 19.7641L59.3238 19.7177V19.5939C59.3238 19.2017 59.2257 18.9231 59.0297 18.758C58.8388 18.5929 58.5808 18.5104 58.2557 18.5104C57.91 18.5104 57.5231 18.5723 57.0948 18.6961C56.6718 18.8148 56.2461 18.9696 55.8179 19.1605L54.9433 17.1637C55.449 16.9058 56.0217 16.7097 56.6614 16.5755C57.3012 16.4414 58.0184 16.3743 58.813 16.3743ZM59.3392 21.3816L58.6427 21.4126C58.0855 21.4332 57.6933 21.5313 57.4663 21.7067C57.2445 21.8769 57.1335 22.122 57.1335 22.4419C57.1335 22.7412 57.2135 22.963 57.3735 23.1075C57.5334 23.2468 57.7449 23.3164 58.0081 23.3164C58.3744 23.3164 58.6866 23.2004 58.9445 22.9682C59.2077 22.736 59.3392 22.4342 59.3392 22.0627V21.3816Z"
          fill="#3F3F3F"/>
    <path d="M69.764 16.3743C70.734 16.3743 71.495 16.7639 72.0471 17.543C72.5992 18.3169 72.8752 19.4339 72.8752 20.8941C72.8752 21.8898 72.7359 22.7283 72.4573 23.4093C72.1787 24.0852 71.7969 24.596 71.3119 24.9417C70.832 25.2822 70.2851 25.4525 69.6712 25.4525C69.2584 25.4525 68.9075 25.4009 68.6186 25.2977C68.3348 25.1945 68.0975 25.0655 67.9066 24.9107C67.7209 24.7559 67.5635 24.5986 67.4345 24.4386H67.3416C67.3674 24.6399 67.3881 24.8566 67.4036 25.0887C67.4242 25.3209 67.4345 25.5918 67.4345 25.9014V29.1054H64.4085V16.5291H66.8695L67.2952 17.6436H67.4345C67.579 17.4165 67.7544 17.2076 67.9608 17.0167C68.1672 16.8206 68.4174 16.6658 68.7115 16.5523C69.0107 16.4337 69.3616 16.3743 69.764 16.3743ZM68.6264 18.7503C68.3323 18.7503 68.1001 18.8199 67.9298 18.9592C67.7596 19.0985 67.6357 19.3101 67.5583 19.5939C67.4861 19.8725 67.4448 20.2207 67.4345 20.6387V20.8786C67.4345 21.3429 67.4706 21.7351 67.5429 22.0549C67.6151 22.3697 67.7389 22.6096 67.9143 22.7747C68.0898 22.9346 68.3323 23.0146 68.6418 23.0146C68.8947 23.0146 69.1062 22.9424 69.2765 22.7979C69.4467 22.6534 69.5757 22.4238 69.6634 22.1091C69.7511 21.7944 69.795 21.379 69.795 20.8631C69.795 20.0943 69.6944 19.55 69.4932 19.2301C69.2971 18.9102 69.0082 18.7503 68.6264 18.7503Z"
          fill="#3F3F3F"/>
    <path d="M78.9041 23.061C79.1776 23.061 79.4278 23.0327 79.6548 22.9759C79.8818 22.9192 80.1192 22.8469 80.3668 22.7592V24.9649C80.0366 25.1094 79.6858 25.2255 79.3143 25.3132C78.948 25.406 78.4784 25.4525 77.9057 25.4525C77.3382 25.4525 76.8377 25.3648 76.4043 25.1893C75.9709 25.0088 75.633 24.6992 75.3905 24.2606C75.1531 23.8169 75.0345 23.2004 75.0345 22.411V18.7967H73.9742V17.5662L75.3208 16.6142L76.1025 14.7723H78.0837V16.5291H80.2353V18.7967H78.0837V22.2097C78.0837 22.4935 78.156 22.7076 78.3004 22.8521C78.4449 22.9914 78.6461 23.061 78.9041 23.061Z"
          fill="#3F3F3F"/>
    <path d="M84.9407 16.5291V25.2977H81.9147V16.5291H84.9407ZM83.4393 13C83.8727 13 84.2494 13.0903 84.5693 13.2709C84.8943 13.4515 85.0568 13.81 85.0568 14.3466C85.0568 14.8677 84.8943 15.2212 84.5693 15.4069C84.2494 15.5875 83.8727 15.6778 83.4393 15.6778C82.9956 15.6778 82.6164 15.5875 82.3016 15.4069C81.9921 15.2212 81.8373 14.8677 81.8373 14.3466C81.8373 13.81 81.9921 13.4515 82.3016 13.2709C82.6164 13.0903 82.9956 13 83.4393 13Z"
          fill="#3F3F3F"/>
    <path d="M95.4274 20.8941C95.4274 21.6267 95.3268 22.2768 95.1256 22.8444C94.9244 23.4119 94.6329 23.8892 94.2511 24.2761C93.8693 24.6631 93.4075 24.9572 92.8657 25.1584C92.324 25.3545 91.7126 25.4525 91.0315 25.4525C90.3969 25.4525 89.8139 25.3545 89.2825 25.1584C88.7562 24.9572 88.297 24.6631 87.9049 24.2761C87.5128 23.8892 87.2083 23.4119 86.9916 22.8444C86.7801 22.2768 86.6743 21.6267 86.6743 20.8941C86.6743 19.9241 86.8498 19.1037 87.2006 18.433C87.5566 17.7622 88.0622 17.2514 88.7175 16.9006C89.3779 16.5497 90.1647 16.3743 91.078 16.3743C91.919 16.3743 92.6671 16.5497 93.3224 16.9006C93.9776 17.2514 94.491 17.7622 94.8625 18.433C95.2391 19.1037 95.4274 19.9241 95.4274 20.8941ZM89.7468 20.8941C89.7468 21.3945 89.7907 21.8176 89.8784 22.1633C89.9661 22.5038 90.1054 22.7644 90.2963 22.945C90.4924 23.1204 90.7478 23.2081 91.0625 23.2081C91.3772 23.2081 91.6275 23.1204 91.8132 22.945C91.999 22.7644 92.1331 22.5038 92.2156 22.1633C92.3034 21.8176 92.3472 21.3945 92.3472 20.8941C92.3472 20.3936 92.3034 19.9757 92.2156 19.6403C92.1331 19.3049 91.9964 19.0521 91.8055 18.8818C91.6197 18.7116 91.3669 18.6264 91.047 18.6264C90.5878 18.6264 90.255 18.8174 90.0487 19.1992C89.8474 19.581 89.7468 20.1459 89.7468 20.8941Z"
          fill="#3F3F3F"/>
    <path d="M102.648 16.3743C103.551 16.3743 104.289 16.6297 104.862 17.1405C105.434 17.6513 105.721 18.4691 105.721 19.5939V25.2977H102.695V20.5148C102.695 19.9318 102.609 19.4932 102.439 19.1992C102.274 18.8999 102.006 18.7503 101.634 18.7503C101.062 18.7503 100.677 18.985 100.481 19.4546C100.285 19.9189 100.187 20.5871 100.187 21.459V25.2977H97.161V16.5291H99.4441L99.8543 17.69H99.9704C100.156 17.4114 100.378 17.174 100.636 16.978C100.894 16.7819 101.191 16.6323 101.526 16.5291C101.861 16.4259 102.235 16.3743 102.648 16.3743Z"
          fill="#3F3F3F"/>
    <path d="M122.964 13.9829L120.178 25.2977H116.563L115.48 20.3678C115.459 20.2749 115.426 20.1175 115.379 19.8957C115.338 19.6738 115.289 19.421 115.232 19.1372C115.181 18.8535 115.132 18.5749 115.085 18.3014C115.044 18.0228 115.013 17.788 114.992 17.5971C114.972 17.788 114.938 18.0228 114.892 18.3014C114.845 18.5749 114.794 18.8535 114.737 19.1372C114.685 19.421 114.634 19.6738 114.582 19.8957C114.536 20.1175 114.502 20.2749 114.482 20.3678L113.39 25.2977H109.776L106.974 13.9829H109.923L111.154 19.6558C111.185 19.7951 111.226 19.9937 111.277 20.2517C111.334 20.5045 111.391 20.7831 111.448 21.0875C111.51 21.3868 111.566 21.6757 111.618 21.9543C111.67 22.2329 111.706 22.4651 111.726 22.6509C111.768 22.331 111.822 21.9672 111.889 21.5596C111.961 21.152 112.038 20.7393 112.121 20.3213C112.209 19.8983 112.291 19.5061 112.369 19.145C112.446 18.7838 112.513 18.4897 112.57 18.2627L113.568 13.9829H116.401L117.368 18.2627C117.42 18.4846 117.484 18.7787 117.562 19.145C117.644 19.5061 117.727 19.8983 117.809 20.3213C117.897 20.7444 117.977 21.1623 118.049 21.5751C118.122 21.9827 118.176 22.3413 118.212 22.6509C118.243 22.3929 118.294 22.0678 118.367 21.6757C118.439 21.2784 118.511 20.8941 118.583 20.5226C118.661 20.1459 118.72 19.8622 118.761 19.6712L120.015 13.9829H122.964Z"
          fill="#3F3F3F"/>
    <path d="M132.622 20.8941C132.622 21.6267 132.522 22.2768 132.321 22.8444C132.119 23.4119 131.828 23.8892 131.446 24.2761C131.064 24.6631 130.602 24.9572 130.061 25.1584C129.519 25.3545 128.908 25.4525 128.226 25.4525C127.592 25.4525 127.009 25.3545 126.477 25.1584C125.951 24.9572 125.492 24.6631 125.1 24.2761C124.708 23.8892 124.403 23.4119 124.187 22.8444C123.975 22.2768 123.869 21.6267 123.869 20.8941C123.869 19.9241 124.045 19.1037 124.396 18.433C124.752 17.7622 125.257 17.2514 125.912 16.9006C126.573 16.5497 127.36 16.3743 128.273 16.3743C129.114 16.3743 129.862 16.5497 130.517 16.9006C131.173 17.2514 131.686 17.7622 132.057 18.433C132.434 19.1037 132.622 19.9241 132.622 20.8941ZM126.942 20.8941C126.942 21.3945 126.986 21.8176 127.073 22.1633C127.161 22.5038 127.3 22.7644 127.491 22.945C127.687 23.1204 127.943 23.2081 128.257 23.2081C128.572 23.2081 128.822 23.1204 129.008 22.945C129.194 22.7644 129.328 22.5038 129.411 22.1633C129.498 21.8176 129.542 21.3945 129.542 20.8941C129.542 20.3936 129.498 19.9757 129.411 19.6403C129.328 19.3049 129.191 19.0521 129 18.8818C128.815 18.7116 128.562 18.6264 128.242 18.6264C127.783 18.6264 127.45 18.8174 127.244 19.1992C127.042 19.581 126.942 20.1459 126.942 20.8941Z"
          fill="#3F3F3F"/>
    <path d="M139.65 16.3743C139.815 16.3743 139.988 16.3872 140.168 16.413C140.349 16.4337 140.483 16.4517 140.571 16.4672L140.3 19.323C140.202 19.2972 140.075 19.2765 139.921 19.2611C139.766 19.2404 139.549 19.2301 139.27 19.2301C139.08 19.2301 138.876 19.2482 138.659 19.2843C138.442 19.3204 138.236 19.3978 138.04 19.5165C137.849 19.63 137.692 19.8054 137.568 20.0427C137.444 20.2749 137.382 20.5896 137.382 20.9869V25.2977H134.356V16.5291H136.608L137.08 17.9299H137.227C137.387 17.641 137.591 17.3804 137.839 17.1482C138.091 16.9109 138.373 16.7226 138.682 16.5833C138.997 16.444 139.319 16.3743 139.65 16.3743Z"
          fill="#3F3F3F"/>
    <path d="M144.843 13.2554V17.9918C144.843 18.3478 144.827 18.7451 144.796 19.1837C144.77 19.6171 144.729 20.0118 144.672 20.3678H144.734C144.853 20.1872 145.003 19.9602 145.183 19.6867C145.364 19.4133 145.526 19.1863 145.671 19.0057L147.637 16.5291H151.011L147.969 20.2594L151.204 25.2977H147.745L145.826 22.1556L144.843 22.9063V25.2977H141.801V13.2554H144.843Z"
          fill="#3F3F3F"/>
    <path d="M158.766 22.6044C158.766 23.1617 158.642 23.6544 158.394 24.0826C158.146 24.5109 157.749 24.8462 157.202 25.0887C156.661 25.3312 155.946 25.4525 155.059 25.4525C154.434 25.4525 153.874 25.4189 153.379 25.3519C152.889 25.2848 152.391 25.1558 151.885 24.9649V22.5425C152.437 22.7953 153 22.9785 153.573 23.092C154.145 23.2004 154.597 23.2545 154.927 23.2545C155.267 23.2545 155.515 23.2184 155.67 23.1462C155.83 23.0688 155.91 22.9553 155.91 22.8057C155.91 22.6767 155.856 22.5683 155.747 22.4806C155.644 22.3877 155.456 22.282 155.182 22.1633C154.914 22.0446 154.535 21.8847 154.045 21.6835C153.56 21.4822 153.155 21.263 152.83 21.0256C152.51 20.7883 152.27 20.5045 152.11 20.1743C151.95 19.8441 151.87 19.4391 151.87 18.9592C151.87 18.1028 152.2 17.4578 152.861 17.0244C153.521 16.591 154.396 16.3743 155.484 16.3743C156.062 16.3743 156.606 16.4388 157.117 16.5678C157.628 16.6916 158.157 16.8748 158.704 17.1173L157.876 19.0676C157.442 18.8715 157.004 18.7142 156.56 18.5955C156.116 18.4768 155.763 18.4175 155.5 18.4175C155.262 18.4175 155.079 18.4484 154.95 18.5104C154.821 18.5723 154.757 18.6626 154.757 18.7812C154.757 18.8896 154.801 18.985 154.888 19.0676C154.981 19.1501 155.154 19.2456 155.407 19.3539C155.66 19.4623 156.029 19.6145 156.514 19.8106C157.024 20.0169 157.445 20.2388 157.775 20.4761C158.11 20.7083 158.358 20.9921 158.518 21.3275C158.683 21.6628 158.766 22.0885 158.766 22.6044Z"
          fill="#3F3F3F"/>
    <path d="M46.751 31.813C46.5482 31.813 46.3682 31.8529 46.2109 31.9326C46.056 32.0101 45.925 32.1229 45.8179 32.271C45.7131 32.4191 45.6333 32.598 45.5786 32.8076C45.5239 33.0173 45.4966 33.2531 45.4966 33.5151C45.4966 33.8683 45.5399 34.1702 45.6265 34.4209C45.7153 34.6693 45.8521 34.8595 46.0366 34.9917C46.2212 35.1216 46.4593 35.1865 46.751 35.1865C46.9538 35.1865 47.1566 35.1637 47.3594 35.1182C47.5645 35.0726 47.7866 35.0076 48.0259 34.9233V35.812C47.8049 35.9032 47.5872 35.9681 47.373 36.0068C47.1589 36.0479 46.9185 36.0684 46.6519 36.0684C46.1369 36.0684 45.7131 35.9624 45.3804 35.7505C45.05 35.5363 44.805 35.2378 44.6455 34.855C44.486 34.4699 44.4062 34.021 44.4062 33.5083C44.4062 33.13 44.4575 32.7837 44.5601 32.4692C44.6626 32.1548 44.813 31.8825 45.0112 31.6523C45.2095 31.4222 45.4544 31.2445 45.7461 31.1191C46.0378 30.9938 46.3727 30.9312 46.751 30.9312C46.9993 30.9312 47.2477 30.9631 47.4961 31.0269C47.7467 31.0884 47.986 31.1738 48.2139 31.2832L47.8721 32.1445C47.6852 32.0557 47.4972 31.9782 47.3081 31.9121C47.119 31.846 46.9333 31.813 46.751 31.813Z"
          fill="#3F3F3F"/>
    <path d="M54.0414 36L53.6791 34.8105H51.8573L51.495 36H50.3534L52.1171 30.9824H53.4125L55.183 36H54.0414ZM53.4261 33.9219L53.0638 32.7598C53.041 32.6823 53.0103 32.5832 52.9715 32.4624C52.9351 32.3394 52.8975 32.2152 52.8587 32.0898C52.8223 31.9622 52.7927 31.8517 52.7699 31.7583C52.7471 31.8517 52.7152 31.9679 52.6742 32.1069C52.6354 32.2437 52.5978 32.3735 52.5614 32.4966C52.5249 32.6196 52.4987 32.7074 52.4828 32.7598L52.1239 33.9219H53.4261Z"
          fill="#3F3F3F"/>
    <path d="M59.3015 31.0029C59.9463 31.0029 60.4169 31.1419 60.7131 31.4199C61.0093 31.6956 61.1574 32.0762 61.1574 32.5615C61.1574 32.7803 61.1244 32.9899 61.0583 33.1904C60.9922 33.3887 60.884 33.5653 60.7336 33.7202C60.5855 33.8752 60.3873 33.9982 60.1389 34.0894C59.8905 34.1782 59.584 34.2227 59.2195 34.2227H58.7649V36H57.7053V31.0029H59.3015ZM59.2468 31.8711H58.7649V33.3545H59.1135C59.3117 33.3545 59.4838 33.3283 59.6296 33.2759C59.7754 33.2235 59.8882 33.1414 59.968 33.0298C60.0477 32.9181 60.0876 32.7746 60.0876 32.5991C60.0876 32.353 60.0193 32.1707 59.8825 32.0522C59.7458 31.9315 59.5339 31.8711 59.2468 31.8711Z"
          fill="#3F3F3F"/>
    <path d="M65.9185 36H64.859V31.8848H63.502V31.0029H67.2755V31.8848H65.9185V36Z" fill="#3F3F3F"/>
    <path d="M69.9345 36V31.0029H70.9941V36H69.9345Z" fill="#3F3F3F"/>
    <path d="M78.6775 33.4946C78.6775 33.8797 78.6297 34.2306 78.534 34.5474C78.4383 34.8618 78.2924 35.133 78.0965 35.3608C77.9028 35.5887 77.6567 35.7642 77.3582 35.8872C77.0597 36.008 76.7065 36.0684 76.2986 36.0684C75.8908 36.0684 75.5376 36.008 75.2391 35.8872C74.9406 35.7642 74.6933 35.5887 74.4974 35.3608C74.3037 35.133 74.159 34.8607 74.0633 34.5439C73.9676 34.2272 73.9197 33.8752 73.9197 33.4878C73.9197 32.9705 74.004 32.5205 74.1727 32.1377C74.3436 31.7526 74.6056 31.4541 74.9588 31.2422C75.312 31.0303 75.7609 30.9243 76.3055 30.9243C76.8478 30.9243 77.2933 31.0303 77.6419 31.2422C77.9928 31.4541 78.2526 31.7526 78.4212 32.1377C78.5921 32.5228 78.6775 32.9751 78.6775 33.4946ZM75.0306 33.4946C75.0306 33.8433 75.0739 34.144 75.1604 34.397C75.2493 34.6476 75.3872 34.8413 75.574 34.978C75.7609 35.1125 76.0024 35.1797 76.2986 35.1797C76.5994 35.1797 76.8432 35.1125 77.0301 34.978C77.2169 34.8413 77.3525 34.6476 77.4368 34.397C77.5234 34.144 77.5667 33.8433 77.5667 33.4946C77.5667 32.9705 77.4687 32.5581 77.2728 32.2573C77.0768 31.9565 76.7544 31.8062 76.3055 31.8062C76.007 31.8062 75.7632 31.8745 75.574 32.0112C75.3872 32.1457 75.2493 32.3394 75.1604 32.5923C75.0739 32.8429 75.0306 33.1437 75.0306 33.4946Z"
          fill="#3F3F3F"/>
    <path d="M86.0363 36H84.6896L82.5158 32.2197H82.485C82.4941 32.377 82.5021 32.5353 82.5089 32.6948C82.5158 32.8543 82.5226 33.0138 82.5295 33.1733C82.5363 33.3306 82.5431 33.4889 82.55 33.6484V36H81.6032V31.0029H82.9396L85.11 34.7456H85.1339C85.1294 34.5907 85.1237 34.4368 85.1169 34.2842C85.11 34.1315 85.1032 33.9788 85.0963 33.8262C85.0918 33.6735 85.0872 33.5208 85.0827 33.3682V31.0029H86.0363V36Z"
          fill="#3F3F3F"/>
    <path d="M92.1372 34.6123C92.1372 34.9085 92.0654 35.166 91.9219 35.3848C91.7783 35.6035 91.5687 35.7721 91.293 35.8906C91.0196 36.0091 90.6869 36.0684 90.2949 36.0684C90.1218 36.0684 89.952 36.057 89.7857 36.0342C89.6216 36.0114 89.4632 35.9784 89.3106 35.9351C89.1602 35.8895 89.0166 35.8337 88.8799 35.7676V34.7832C89.1169 34.888 89.363 34.9826 89.6182 35.0669C89.8734 35.1512 90.1263 35.1934 90.377 35.1934C90.5501 35.1934 90.6891 35.1706 90.794 35.125C90.9011 35.0794 90.9785 35.0168 91.0264 34.937C91.0742 34.8573 91.0982 34.7661 91.0982 34.6636C91.0982 34.5382 91.056 34.4312 90.9717 34.3423C90.8874 34.2534 90.7712 34.1702 90.6231 34.0928C90.4772 34.0153 90.312 33.9321 90.1275 33.8433C90.0112 33.7886 89.8848 33.7225 89.7481 33.645C89.6113 33.5653 89.4815 33.4684 89.3584 33.3545C89.2354 33.2406 89.134 33.1027 89.0542 32.9409C88.9767 32.7769 88.938 32.5809 88.938 32.353C88.938 32.0545 89.0064 31.7993 89.1431 31.5874C89.2798 31.3755 89.4746 31.2137 89.7276 31.1021C89.9828 30.9881 90.2835 30.9312 90.6299 30.9312C90.8897 30.9312 91.1369 30.9619 91.3716 31.0234C91.6086 31.0827 91.8558 31.1693 92.1133 31.2832L91.7715 32.1069C91.5414 32.0135 91.3351 31.9417 91.1529 31.8916C90.9706 31.8392 90.7848 31.813 90.5957 31.813C90.4636 31.813 90.3508 31.8346 90.2573 31.8779C90.1639 31.9189 90.0933 31.9782 90.0454 32.0557C89.9976 32.1309 89.9737 32.2186 89.9737 32.3188C89.9737 32.4373 90.0078 32.5376 90.0762 32.6196C90.1468 32.6994 90.2516 32.7769 90.3906 32.8521C90.5319 32.9272 90.7074 33.015 90.917 33.1152C91.1722 33.236 91.3898 33.3625 91.5698 33.4946C91.7521 33.6245 91.8923 33.7783 91.9903 33.9561C92.0882 34.1315 92.1372 34.3503 92.1372 34.6123Z"
          fill="#3F3F3F"/>
    <path d="M104.78 31.0029L103.509 36H102.302L101.625 33.375C101.612 33.3249 101.593 33.2485 101.571 33.146C101.548 33.0435 101.524 32.9318 101.499 32.811C101.474 32.688 101.451 32.5729 101.43 32.4658C101.412 32.3564 101.4 32.2699 101.393 32.2061C101.386 32.2699 101.372 32.3553 101.352 32.4624C101.334 32.5695 101.312 32.6834 101.287 32.8042C101.264 32.925 101.241 33.0378 101.218 33.1426C101.196 33.2474 101.177 33.3271 101.164 33.3818L100.49 36H99.2873L98.0124 31.0029H99.0549L99.6941 33.7305C99.7123 33.8125 99.7328 33.9105 99.7556 34.0244C99.7807 34.1383 99.8046 34.258 99.8274 34.3833C99.8524 34.5063 99.8741 34.626 99.8923 34.7422C99.9128 34.8561 99.9276 34.9552 99.9368 35.0396C99.9481 34.953 99.963 34.8527 99.9812 34.7388C99.9994 34.6226 100.019 34.5052 100.039 34.3867C100.062 34.266 100.085 34.1543 100.108 34.0518C100.13 33.9492 100.151 33.866 100.169 33.8022L100.897 31.0029H101.899L102.627 33.8022C102.643 33.8638 102.661 33.9469 102.681 34.0518C102.704 34.1543 102.727 34.266 102.75 34.3867C102.773 34.5075 102.793 34.626 102.811 34.7422C102.832 34.8561 102.847 34.9552 102.856 35.0396C102.872 34.9256 102.893 34.7878 102.921 34.626C102.95 34.4619 102.981 34.299 103.013 34.1372C103.047 33.9754 103.077 33.8398 103.102 33.7305L103.738 31.0029H104.78Z"
          fill="#3F3F3F"/>
    <path d="M107.299 36V31.0029H108.358V36H107.299Z" fill="#3F3F3F"/>
    <path d="M113.434 36H112.374V31.8848H111.018V31.0029H114.791V31.8848H113.434V36Z" fill="#3F3F3F"/>
    <path d="M121.545 36H120.489V33.8433H118.51V36H117.45V31.0029H118.51V32.9614H120.489V31.0029H121.545V36Z"
          fill="#3F3F3F"/>
    <path d="M132.502 36H131.446V33.8433H129.467V36H128.408V31.0029H129.467V32.9614H131.446V31.0029H132.502V36Z"
          fill="#3F3F3F"/>
    <path d="M138.535 36H135.657V31.0029H138.535V31.8711H136.717V32.9683H138.409V33.8364H136.717V35.125H138.535V36Z"
          fill="#3F3F3F"/>
    <path d="M144.53 36L144.168 34.8105H142.346L141.984 36H140.842L142.606 30.9824H143.901L145.672 36H144.53ZM143.915 33.9219L143.552 32.7598C143.53 32.6823 143.499 32.5832 143.46 32.4624C143.424 32.3394 143.386 32.2152 143.347 32.0898C143.311 31.9622 143.281 31.8517 143.259 31.7583C143.236 31.8517 143.204 31.9679 143.163 32.1069C143.124 32.2437 143.087 32.3735 143.05 32.4966C143.014 32.6196 142.987 32.7074 142.971 32.7598L142.613 33.9219H143.915Z"
          fill="#3F3F3F"/>
    <path d="M149.65 31.0029C150.103 31.0029 150.477 31.0576 150.771 31.167C151.067 31.2764 151.287 31.4416 151.431 31.6626C151.574 31.8836 151.646 32.1628 151.646 32.5C151.646 32.7279 151.603 32.9272 151.516 33.0981C151.43 33.269 151.316 33.4137 151.174 33.5322C151.033 33.6507 150.88 33.7476 150.716 33.8228L152.186 36H151.01L149.817 34.0825H149.254V36H148.194V31.0029H149.65ZM149.575 31.8711H149.254V33.2212H149.595C149.946 33.2212 150.197 33.1631 150.347 33.0469C150.5 32.9284 150.576 32.7552 150.576 32.5273C150.576 32.2904 150.494 32.1217 150.33 32.0215C150.168 31.9212 149.917 31.8711 149.575 31.8711Z"
          fill="#3F3F3F"/>
    <path d="M156.633 36H155.573V31.8848H154.216V31.0029H157.99V31.8848H156.633V36Z" fill="#3F3F3F"/>
</svg>
